<svg width="797" height="255" version="1.1" xmlns="http://www.w3.org/2000/svg" desc="Created with imagetracer.js version 1.2.6" ><path fill="rgb(0,0,0)" stroke="rgb(0,0,0)" stroke-width="1" opacity="0" d="M 0 0 L 796.5 0 L 797 0.5 L 797 255 L 0.5 255 L 0 254.5 L 0 0 Z M 68 50 Q 58 52 53 57 Q 43 65 40 80 L 40 93 L 44 104 Q 49 111 59 115 Q 73 120 90 123 L 107 130 Q 113 134 114 143 Q 114 153 109 159 Q 104 165 95 168 L 80 168 L 65 161 Q 50 150 46 129 L 45 127 L 38 127 L 38 175 Q 38 176 45 175 L 55 164 Q 63 172 77 175 L 97 175 L 111 169 Q 123 161 126 145 Q 128 127 121 119 Q 114 110 104 106 L 74 99 L 61 94 Q 54 90 52 83 Q 51 71 56 66 Q 61 59 70 57 Q 88 55 97 64 L 106 76 L 113 94 L 113 96 L 119 96 L 119 52 L 119 51 L 111 51 L 106 60 L 86 50 L 68 50 Z M 258 50 L 248 55 Q 234 65 235 91 L 235 93 L 235 97 L 221 97 L 221 105 L 235 105 L 235 160 L 234 164 L 232 166 L 227 167 L 220 167 L 220 174 L 268 174 L 268 174 L 268 167 Q 258 168 252 165 L 249 162 L 249 106 L 250 105 L 268 105 L 268 97 L 249 97 L 249 75 L 253 64 L 261 57 L 270 57 L 272 60 L 268 62 Q 266 65 267 72 L 271 75 L 275 76 L 280 75 L 284 70 Q 286 61 282 57 L 273 50 L 258 50 Z M 393 50 Q 379 53 371 61 Q 359 71 353 87 L 348 107 L 348 123 L 350 134 Q 354 147 362 157 Q 373 170 394 175 L 415 175 Q 426 173 434 166 Q 447 155 450 135 L 450 131 L 443 131 Q 442 146 434 156 Q 427 165 415 168 Q 394 171 386 162 Q 379 156 375 148 L 370 129 L 370 100 Q 373 98 371 92 L 374 80 L 380 69 Q 386 60 397 57 Q 413 55 421 62 Q 436 75 440 99 Q 442 101 447 100 L 447 87 L 446 86 L 446 64 L 445 63 L 445 50 L 438 50 L 434 60 L 422 53 L 412 50 L 393 50 Z M 665 50 L 655 55 Q 641 65 642 91 L 642 93 L 642 97 L 628 97 L 628 105 L 642 105 L 642 160 L 641 164 L 639 166 L 634 167 L 627 167 L 627 174 L 675 174 L 675 174 L 675 167 Q 665 168 659 165 L 656 162 L 656 106 L 657 105 L 675 105 L 675 97 L 656 97 L 656 75 L 660 64 L 668 57 L 677 57 L 679 60 L 675 62 Q 673 65 674 72 L 678 75 L 682 76 L 687 75 L 691 70 Q 693 61 689 57 L 680 50 L 665 50 Z M 297 65 L 296 77 L 293 86 L 289 92 Q 285 97 276 98 L 276 105 L 289 105 L 289 162 L 291 167 Q 295 173 303 175 Q 315 177 322 173 L 329 166 L 333 156 Q 332 150 334 149 L 334 145 L 327 145 Q 328 157 322 164 L 318 167 L 309 166 L 304 160 L 304 105 L 328 105 L 328 97 L 304 97 L 304 66 L 304 65 L 297 65 Z M 704 65 L 703 77 L 696 92 Q 692 97 683 98 L 683 105 L 696 105 L 696 162 L 698 167 Q 702 173 710 175 Q 722 177 729 173 L 736 166 L 739 160 L 741 149 L 741 145 L 734 145 Q 735 157 729 164 L 725 167 L 716 166 L 711 160 L 711 105 L 735 105 L 735 97 L 711 97 L 711 66 L 711 65 L 704 65 Z M 166 95 L 155 100 L 143 113 L 138 129 L 139 148 L 145 161 Q 152 171 166 175 L 183 175 L 198 168 Q 208 160 211 145 L 211 126 Q 209 115 203 108 Q 196 98 184 95 L 166 95 Z M 461 95 L 461 103 L 472 103 L 474 104 L 476 108 Q 475 112 477 114 L 477 162 L 476 164 L 474 166 L 469 167 L 461 167 L 461 174 L 510 174 L 510 174 L 510 167 L 495 166 L 491 162 L 492 136 L 497 119 L 504 107 L 511 103 L 513 103 L 511 108 L 512 117 Q 514 122 524 120 L 528 116 L 529 112 Q 530 104 527 101 L 521 95 Q 509 93 505 97 Q 493 105 490 122 L 489 122 L 489 95 L 461 95 Z M 566 95 L 552 101 L 543 112 Q 542 119 544 123 L 547 125 L 553 127 L 558 126 L 562 120 Q 562 113 558 110 L 558 106 L 567 102 Q 579 100 585 105 L 590 114 L 590 127 L 578 128 L 566 131 L 548 140 Q 542 144 539 152 Q 537 162 541 167 Q 545 173 554 175 L 573 175 Q 584 172 591 163 L 593 169 Q 595 174 602 175 Q 612 177 618 173 Q 625 170 618 166 L 609 167 L 605 163 L 605 115 L 601 104 Q 596 97 587 95 L 566 95 Z M 377 190 Q 370 193 372 204 L 368 205 L 372 205 L 372 222 L 371 223 Q 372 225 369 224 L 369 225 L 381 225 L 378 224 L 376 223 L 376 205 L 381 205 L 376 204 L 377 194 L 381 191 L 380 196 Q 381 198 385 197 Q 387 196 386 193 Q 384 188 377 190 Z M 50 191 L 48 192 L 44 200 Q 46 203 51 202 Q 53 196 47 198 L 52 192 L 50 191 Z M 59 191 L 54 196 Q 53 201 56 202 Q 62 204 60 198 L 56 198 L 61 192 L 59 191 Z M 75 191 L 69 194 L 64 204 Q 62 215 67 221 L 75 226 Q 83 228 87 225 L 92 219 Q 93 214 90 215 L 88 221 L 82 225 L 74 223 L 71 218 L 70 213 L 71 200 L 73 196 L 79 192 L 83 193 Q 87 196 89 203 Q 88 205 92 204 Q 90 199 91 191 Q 87 190 88 193 Q 84 190 75 191 Z M 275 191 Q 274 193 277 192 L 278 194 L 278 204 L 277 203 L 268 204 L 263 211 L 264 222 Q 266 228 277 226 Q 278 222 280 225 L 287 225 L 283 223 L 283 192 L 283 191 L 275 191 Z M 532 191 Q 531 193 534 192 L 535 194 L 535 204 L 534 203 L 525 204 L 520 211 L 521 222 Q 523 228 534 226 Q 535 222 537 225 L 544 225 L 540 223 L 540 192 L 540 191 L 532 191 Z M 627 191 Q 626 193 629 192 L 630 194 L 630 223 L 627 224 L 627 225 L 639 225 L 635 223 L 635 192 L 635 191 L 627 191 Z M 668 191 Q 667 193 670 192 L 671 194 L 671 204 L 670 203 L 661 204 L 656 211 L 657 222 Q 659 228 670 226 Q 671 222 673 225 L 680 225 L 676 223 L 676 192 L 676 191 L 668 191 Z M 720 191 Q 719 193 722 192 L 723 194 L 723 204 L 722 203 L 713 204 L 708 211 L 709 222 Q 711 228 722 226 Q 723 222 725 225 L 732 225 L 728 223 L 728 192 L 728 191 L 720 191 Z M 734 191 L 732 194 L 736 195 L 735 199 L 732 200 Q 731 203 735 202 L 739 198 L 739 193 Q 738 190 734 191 Z M 743 191 L 741 193 L 743 195 Q 746 194 745 198 L 741 200 Q 740 203 744 202 L 748 198 L 748 193 Q 747 190 743 191 Z M 189 193 L 187 196 Q 188 198 192 197 L 193 195 Q 192 192 189 193 Z M 646 193 L 644 196 Q 645 198 649 197 L 650 195 Q 649 192 646 193 Z M 391 195 L 388 202 L 384 205 L 387 205 L 387 222 L 388 224 Q 390 228 397 226 L 400 222 Q 401 217 398 218 L 397 223 Q 395 228 392 223 L 392 205 L 399 205 L 399 204 L 392 204 L 392 196 L 391 195 Z M 108 203 L 104 208 L 103 204 L 95 205 L 98 205 L 99 207 L 99 223 L 96 224 L 96 225 L 109 225 L 104 223 Q 103 213 106 208 L 109 206 Q 107 212 113 210 Q 115 209 114 205 Q 113 202 108 203 Z M 123 203 L 121 204 L 116 210 Q 114 218 117 222 L 123 226 L 132 225 L 135 221 L 136 219 Q 132 218 133 221 L 128 225 L 126 225 L 121 221 L 121 215 L 136 215 L 135 209 L 133 206 Q 130 202 123 203 Z M 145 203 L 140 207 Q 139 210 142 211 Q 145 212 146 210 L 145 205 L 148 204 L 152 205 L 153 212 L 144 214 L 139 219 L 139 224 L 143 226 Q 150 227 153 224 L 156 226 Q 161 227 162 225 L 158 224 L 158 209 L 156 204 Q 153 202 145 203 Z M 171 203 L 168 205 L 164 211 L 165 222 L 171 226 L 180 225 L 182 222 Q 183 218 180 219 L 178 224 L 176 225 L 173 224 L 169 219 Q 167 207 174 204 L 177 206 L 176 210 Q 177 212 181 211 Q 183 210 182 207 Q 180 201 171 203 Z M 206 203 L 203 205 L 199 212 Q 198 219 201 223 L 206 226 L 214 226 L 217 224 L 220 218 L 220 212 L 217 205 L 214 203 L 206 203 Z M 235 203 L 231 206 L 230 204 L 222 205 L 225 206 L 226 207 L 226 223 L 223 224 L 223 225 L 234 225 L 231 223 L 231 210 L 232 208 L 236 205 L 239 206 L 240 209 L 240 223 L 238 224 L 238 225 L 249 225 L 247 224 L 245 223 Q 247 212 244 206 Q 242 201 235 203 Z M 297 203 L 295 204 L 290 210 Q 288 218 291 222 L 297 226 L 306 225 L 309 221 L 310 219 Q 306 218 307 221 L 302 225 L 300 225 L 295 221 L 295 215 L 310 215 L 309 209 L 307 206 Q 304 202 297 203 Z M 330 203 L 325 210 L 326 213 L 330 216 L 338 218 Q 341 217 339 223 L 336 225 L 332 224 L 328 218 L 325 218 L 325 225 L 329 224 Q 331 227 339 226 L 343 221 L 342 216 L 340 213 L 331 211 Q 328 210 329 207 L 333 204 L 336 205 L 339 211 L 341 211 L 341 204 L 330 203 Z M 352 203 L 349 205 L 345 212 Q 344 219 347 223 L 352 226 L 360 226 L 363 224 L 366 218 L 366 212 L 363 205 L 360 203 L 352 203 Z M 444 203 L 439 207 Q 438 210 441 211 Q 444 212 445 210 L 444 205 L 447 204 L 451 205 L 452 212 L 443 214 L 438 219 L 438 224 L 442 226 Q 449 227 452 224 L 455 226 Q 460 227 461 225 L 457 224 L 457 209 L 455 204 Q 452 202 444 203 Z M 476 203 L 472 208 L 471 204 L 463 205 L 466 205 L 467 207 L 467 223 L 464 224 L 464 225 L 477 225 L 472 223 Q 471 213 474 208 L 477 206 Q 475 212 481 210 Q 483 209 482 205 Q 481 202 476 203 Z M 491 203 L 489 204 L 484 210 Q 482 218 485 222 L 491 226 L 500 225 L 503 221 L 504 219 Q 500 218 501 221 L 496 225 L 494 225 L 489 221 L 489 215 L 504 215 L 503 209 L 501 206 Q 498 202 491 203 Z M 553 203 L 551 204 L 546 210 Q 544 218 547 222 L 553 226 L 562 225 L 565 221 L 566 219 Q 562 218 563 221 L 558 225 L 556 225 L 551 221 L 551 215 L 566 215 L 565 209 L 563 206 Q 560 202 553 203 Z M 588 203 L 585 205 L 581 211 L 582 222 L 588 226 L 597 225 L 599 222 Q 600 218 597 219 L 595 224 L 593 225 L 590 224 L 586 219 Q 584 207 591 204 L 594 206 L 593 210 Q 594 212 598 211 Q 600 210 599 207 Q 597 201 588 203 Z M 608 203 L 603 207 Q 602 210 605 211 Q 608 212 609 210 L 608 205 L 611 204 L 615 205 L 616 212 L 607 214 L 602 219 L 602 224 L 606 226 Q 613 227 616 224 L 619 226 Q 624 227 625 225 L 621 224 L 621 209 L 619 204 Q 616 202 608 203 Z M 689 203 L 684 207 Q 683 210 686 211 Q 689 212 690 210 L 689 205 L 692 204 L 696 205 L 697 212 L 688 214 L 683 219 L 683 224 L 687 226 Q 694 227 697 224 L 700 226 Q 705 227 706 225 L 702 224 L 702 209 L 700 204 Q 697 202 689 203 Z M 185 204 Q 184 206 187 205 L 188 207 L 188 223 L 185 224 L 185 225 L 197 225 L 193 223 L 193 204 L 185 204 Z M 402 204 L 410 224 Q 409 228 413 226 L 418 213 L 423 225 Q 422 228 426 226 L 432 208 L 435 204 L 426 205 L 429 207 L 426 215 Q 427 218 424 217 L 421 209 Q 419 204 423 205 L 423 204 L 412 205 L 416 208 L 413 218 L 408 205 L 411 205 L 402 204 Z M 642 204 Q 641 206 644 205 L 645 207 L 645 223 L 642 224 L 642 225 L 654 225 L 650 223 L 650 204 L 642 204 Z " /><path fill="rgb(0,0,0)" stroke="rgb(0,0,0)" stroke-width="1" opacity="0" d="M 169.5 102 Q 185.3 100.3 190 109.5 L 195 122.5 L 195 145.5 L 192 156.5 L 186.5 164 Q 181.8 169.8 169.5 168 L 159 159.5 L 156 152.5 L 154 142.5 L 154 127.5 L 157 114.5 L 165.5 104 L 169.5 102 Z " /><path fill="rgb(0,0,0)" stroke="rgb(0,0,0)" stroke-width="1" opacity="0" d="M 585.5 134 Q 590 133.5 590 134.5 L 590 147.5 Q 588.3 157.8 581.5 163 Q 576.3 169.8 562.5 168 L 557 163.5 Q 554.1 159.9 555 152.5 Q 557.1 144.6 563.5 141 L 572.5 137 L 585.5 134 Z " /><path fill="rgb(0,0,0)" stroke="rgb(0,0,0)" stroke-width="1" opacity="0" d="M 125.5 204 L 130 207.5 L 131 212.5 L 129.5 214 L 121 214 Q 119.8 207.5 123.5 205 L 125.5 204 Z " /><path fill="rgb(0,0,0)" stroke="rgb(0,0,0)" stroke-width="1" opacity="0" d="M 208.5 204 Q 213.5 203.5 214 207.5 L 215 218.5 L 210.5 225 Q 205.5 225.5 205 221.5 L 204 210.5 L 208.5 204 Z " /><path fill="rgb(0,0,0)" stroke="rgb(0,0,0)" stroke-width="1" opacity="0" d="M 272.5 204 Q 277.5 203.5 278 207.5 L 278 221.5 L 274.5 225 Q 269.5 225.5 269 221.5 L 268 210.5 L 270 205 L 272.5 204 Z " /><path fill="rgb(0,0,0)" stroke="rgb(0,0,0)" stroke-width="1" opacity="0" d="M 299.5 204 L 304 207.5 L 305 212.5 L 303.5 214 L 295 214 Q 293.8 207.5 297.5 205 L 299.5 204 Z " /><path fill="rgb(0,0,0)" stroke="rgb(0,0,0)" stroke-width="1" opacity="0" d="M 354.5 204 Q 359.5 203.5 360 207.5 L 361 218.5 L 356.5 225 Q 351.5 225.5 351 221.5 L 350 210.5 L 354.5 204 Z " /><path fill="rgb(0,0,0)" stroke="rgb(0,0,0)" stroke-width="1" opacity="0" d="M 493.5 204 L 498 207.5 L 499 212.5 L 497.5 214 L 489 214 Q 487.8 207.5 491.5 205 L 493.5 204 Z " /><path fill="rgb(0,0,0)" stroke="rgb(0,0,0)" stroke-width="1" opacity="0" d="M 529.5 204 Q 534.5 203.5 535 207.5 L 535 221.5 L 531.5 225 Q 526.5 225.5 526 221.5 L 525 210.5 L 527 205 L 529.5 204 Z " /><path fill="rgb(0,0,0)" stroke="rgb(0,0,0)" stroke-width="1" opacity="0" d="M 555.5 204 L 560 207.5 L 561 212.5 L 559.5 214 L 551 214 Q 549.8 207.5 553.5 205 L 555.5 204 Z " /><path fill="rgb(0,0,0)" stroke="rgb(0,0,0)" stroke-width="1" opacity="0" d="M 665.5 204 Q 670.5 203.5 671 207.5 L 671 221.5 L 667.5 225 Q 662.5 225.5 662 221.5 L 661 210.5 L 663 205 L 665.5 204 Z " /><path fill="rgb(0,0,0)" stroke="rgb(0,0,0)" stroke-width="1" opacity="0" d="M 717.5 204 Q 722.5 203.5 723 207.5 L 723 221.5 L 719.5 225 Q 714.5 225.5 714 221.5 L 713 210.5 L 715 205 L 717.5 204 Z " /><path fill="rgb(0,0,0)" stroke="rgb(0,0,0)" stroke-width="1" opacity="0" d="M 152.5 213 L 153 219.5 L 149.5 224 L 146.5 225 Q 143 224 144 218.5 L 145 216 L 152.5 213 Z " /><path fill="rgb(0,0,0)" stroke="rgb(0,0,0)" stroke-width="1" opacity="0" d="M 451.5 213 L 452 219.5 L 448.5 224 L 445.5 225 Q 442 224 443 218.5 L 444 216 L 451.5 213 Z " /><path fill="rgb(0,0,0)" stroke="rgb(0,0,0)" stroke-width="1" opacity="0" d="M 615.5 213 L 616 219.5 L 612.5 224 L 609.5 225 Q 606 224 607 218.5 L 608 216 L 615.5 213 Z " /><path fill="rgb(0,0,0)" stroke="rgb(0,0,0)" stroke-width="1" opacity="0" d="M 696.5 213 L 697 219.5 L 693.5 224 L 690.5 225 Q 687 224 688 218.5 L 689 216 L 696.5 213 Z " /><path fill="rgb(255,168,62)" stroke="rgb(255,168,62)" stroke-width="1" opacity="0.9058823529411765" d="M 69.5 50 L 87.5 51 L 105.5 61 L 112.5 51 Q 118.8 50.3 119 51.5 L 119 95 L 113 95 L 113 91.5 L 106 74.5 L 97.5 64 Q 89.2 55.3 71.5 56 Q 61.3 57.8 56 64.5 Q 49.6 70.1 52 84.5 L 59.5 94 L 71.5 99 L 83.5 101 L 104.5 107 Q 114.8 111.2 121 119.5 Q 126.7 127.3 126 141.5 L 124 150.5 L 120 158.5 L 113.5 166 L 98.5 174 L 93.5 175 L 78.5 175 L 67.5 172 L 55.5 164 L 53.5 164 L 44.5 174 Q 39.1 174.6 39 173.5 L 39 127 L 45 127 L 45 129.5 Q 49.2 150.3 63.5 161 Q 72.7 169.8 91.5 169 Q 102.8 166.8 109 159.5 L 114 149.5 L 114 140.5 Q 112.5 133.5 107.5 130 L 91.5 123 L 62.5 116 Q 53.1 112.9 47 106.5 L 41 94.5 L 40 83.5 Q 42.5 82 41 76.5 L 45 66.5 L 53.5 57 Q 59.9 51.9 69.5 50 Z " /><path fill="rgb(255,168,62)" stroke="rgb(255,168,62)" stroke-width="1" opacity="0.9058823529411765" d="M 259.5 50 Q 276.3 48.3 282 57.5 Q 284.7 60.8 284 67.5 L 279.5 74 L 272.5 75 L 267 70.5 Q 266 64 269.5 62 L 272 60.5 L 270.5 57 L 262.5 56 Q 255.3 57.8 252 63.5 L 249 71.5 L 249 97 L 268 97 L 268 104 L 249.5 104 L 249 104.5 L 249 163.5 L 254.5 167 L 268 167 L 268 172.5 L 267.5 173 L 221 173 L 221 167 L 230.5 167 L 234 164.5 L 235 162.5 L 235 104 L 222 104 L 222 97 L 235 97 L 235 81.5 L 237 72.5 L 241 63.5 L 248.5 55 L 259.5 50 Z " /><path fill="rgb(255,168,62)" stroke="rgb(255,168,62)" stroke-width="1" opacity="0.9058823529411765" d="M 168.5 95 L 185.5 96 Q 196.5 100 203 108.5 Q 212.4 119.6 211 141.5 L 207 155.5 L 196.5 168 Q 187.3 176.3 168.5 175 Q 155.3 172.2 148 163.5 Q 141.5 156 139 144.5 L 139 125.5 Q 141.9 111.9 150.5 104 Q 157.2 97.2 168.5 95 Z M 172 101 L 165 104 L 159 110 L 154 124 L 154 146 L 156 155 L 159 161 Q 163 167 172 169 L 178 169 L 184 167 Q 190 163 193 156 L 196 141 L 195 121 L 190 109 Q 185 100 172 101 Z " /><path fill="rgb(255,93,99)" stroke="rgb(255,93,99)" stroke-width="1" opacity="0.4117647058823529" d="M 83.5 50 L 86 50.5 L 83.5 51 L 83.5 50 Z " /><path fill="rgb(255,93,99)" stroke="rgb(255,93,99)" stroke-width="1" opacity="0.4117647058823529" d="M 270.5 50 L 273 50.5 L 270.5 51 L 270.5 50 Z " /><path fill="rgb(255,93,99)" stroke="rgb(255,93,99)" stroke-width="1" opacity="0.4117647058823529" d="M 392.5 50 L 397 50.5 L 392.5 51 L 392.5 50 Z " /><path fill="rgb(255,93,99)" stroke="rgb(255,93,99)" stroke-width="1" opacity="0.4117647058823529" d="M 408.5 50 L 412 50.5 L 408.5 51 L 408.5 50 Z " /><path fill="rgb(255,93,99)" stroke="rgb(255,93,99)" stroke-width="1" opacity="0.4117647058823529" d="M 438.5 50 L 439 51.5 L 433.5 62 L 426 56.5 L 427.5 57 L 434 60 L 438.5 50 Z " /><path fill="rgb(255,93,99)" stroke="rgb(255,93,99)" stroke-width="1" opacity="0.4117647058823529" d="M 444.5 50 L 445 55.5 L 444 55.5 L 444.5 50 Z " /><path fill="rgb(255,93,99)" stroke="rgb(255,93,99)" stroke-width="1" opacity="0.4117647058823529" d="M 388.5 51 L 391 51.5 Q 375.2 55.7 366 66.5 L 356.5 81 L 357 79.5 Q 361.5 68 370.5 61 Q 378 54.5 388.5 51 Z " /><path fill="rgb(255,93,99)" stroke="rgb(255,93,99)" stroke-width="1" opacity="0.4117647058823529" d="M 413.5 51 L 416 51.5 L 413.5 52 L 413.5 51 Z " /><path fill="rgb(255,93,99)" stroke="rgb(255,93,99)" stroke-width="1" opacity="0.4117647058823529" d="M 58.5 53 L 60 53.5 L 57.5 55 L 58.5 53 Z " /><path fill="rgb(255,93,99)" stroke="rgb(255,93,99)" stroke-width="1" opacity="0.4117647058823529" d="M 110.5 53 L 109.5 55 L 110.5 53 Z " /><path fill="rgb(255,93,99)" stroke="rgb(255,93,99)" stroke-width="1" opacity="0.4117647058823529" d="M 250.5 53 L 249.5 55 L 250.5 53 Z " /><path fill="rgb(255,93,99)" stroke="rgb(255,93,99)" stroke-width="1" opacity="0.4117647058823529" d="M 278.5 53 L 281.5 57 L 278.5 53 Z " /><path fill="rgb(255,93,99)" stroke="rgb(255,93,99)" stroke-width="1" opacity="0.4117647058823529" d="M 420.5 53 L 425 55.5 L 423.5 55 Q 419.7 54.8 420.5 53 Z " /><path fill="rgb(255,93,99)" stroke="rgb(255,93,99)" stroke-width="1" opacity="0.4117647058823529" d="M 55.5 55 L 54.5 57 L 55.5 55 Z " /><path fill="rgb(255,93,99)" stroke="rgb(255,93,99)" stroke-width="1" opacity="0.4117647058823529" d="M 97.5 55 L 98.5 57 L 97.5 55 Z " /><path fill="rgb(255,93,99)" stroke="rgb(255,93,99)" stroke-width="1" opacity="0.4117647058823529" d="M 247.5 55 L 243.5 60 L 247.5 55 Z " /><path fill="rgb(255,93,99)" stroke="rgb(255,93,99)" stroke-width="1" opacity="0.4117647058823529" d="M 71.5 56 L 81 56.5 L 71.5 57 L 71.5 56 Z " /><path fill="rgb(255,93,99)" stroke="rgb(255,93,99)" stroke-width="1" opacity="0.4117647058823529" d="M 108.5 56 L 107.5 58 L 108.5 56 Z " /><path fill="rgb(255,93,99)" stroke="rgb(255,93,99)" stroke-width="1" opacity="0.4117647058823529" d="M 262.5 56 L 269 56.5 L 262.5 57 L 262.5 56 Z " /><path fill="rgb(255,93,99)" stroke="rgb(255,93,99)" stroke-width="1" opacity="0.4117647058823529" d="M 397.5 56 L 410 56.5 L 397.5 57 L 397.5 56 Z " /><path fill="rgb(255,93,99)" stroke="rgb(255,93,99)" stroke-width="1" opacity="0.4117647058823529" d="M 52.5 57 L 48.5 62 L 52.5 57 Z " /><path fill="rgb(255,93,99)" stroke="rgb(255,93,99)" stroke-width="1" opacity="0.4117647058823529" d="M 100.5 57 L 102.5 60 L 100.5 57 Z " /><path fill="rgb(255,93,99)" stroke="rgb(255,93,99)" stroke-width="1" opacity="0.4117647058823529" d="M 270.5 57 L 271.5 59 L 270.5 57 Z " /><path fill="rgb(255,93,99)" stroke="rgb(255,93,99)" stroke-width="1" opacity="0.4117647058823529" d="M 393.5 57 L 396 57.5 L 388.5 61 L 389.5 59 L 393.5 57 Z " /><path fill="rgb(255,93,99)" stroke="rgb(255,93,99)" stroke-width="1" opacity="0.4117647058823529" d="M 64.5 58 L 66 58.5 L 61.5 61 L 62.5 59 L 64.5 58 Z " /><path fill="rgb(255,93,99)" stroke="rgb(255,93,99)" stroke-width="1" opacity="0.4117647058823529" d="M 257.5 58 L 253 63.5 L 251.5 67 L 251 65.5 L 257.5 58 Z " /><path fill="rgb(255,93,99)" stroke="rgb(255,93,99)" stroke-width="1" opacity="0.4117647058823529" d="M 106.5 59 L 105.5 61 L 104 60.5 L 106.5 59 Z " /><path fill="rgb(255,93,99)" stroke="rgb(255,93,99)" stroke-width="1" opacity="0.4117647058823529" d="M 271.5 60 L 270.5 62 L 271.5 60 Z " /><path fill="rgb(255,93,99)" stroke="rgb(255,93,99)" stroke-width="1" opacity="0.4117647058823529" d="M 418.5 60 L 429 69.5 L 432 74.5 L 430 73.5 Q 427 66 420.5 62 L 418.5 60 Z " /><path fill="rgb(255,93,99)" stroke="rgb(255,93,99)" stroke-width="1" opacity="0.4117647058823529" d="M 59.5 61 L 56.5 65 L 59.5 61 Z " /><path fill="rgb(255,93,99)" stroke="rgb(255,93,99)" stroke-width="1" opacity="0.4117647058823529" d="M 93.5 61 L 95.5 64 L 93.5 61 Z " /><path fill="rgb(255,93,99)" stroke="rgb(255,93,99)" stroke-width="1" opacity="0.4117647058823529" d="M 242.5 61 L 241.5 63 L 242.5 61 Z " /><path fill="rgb(255,93,99)" stroke="rgb(255,93,99)" stroke-width="1" opacity="0.4117647058823529" d="M 386.5 61 L 380 68.5 L 374.5 79 L 374 77.5 Q 378.2 67.2 386.5 61 Z " /><path fill="rgb(255,93,99)" stroke="rgb(255,93,99)" stroke-width="1" opacity="0.4117647058823529" d="M 445.5 63 L 446 78.5 L 445 78.5 L 445.5 63 Z " /><path fill="rgb(255,93,99)" stroke="rgb(255,93,99)" stroke-width="1" opacity="0.4117647058823529" d="M 46.5 64 L 45.5 66 L 46.5 64 Z " /><path fill="rgb(255,93,99)" stroke="rgb(255,93,99)" stroke-width="1" opacity="0.4117647058823529" d="M 97.5 64 L 100.5 68 L 97.5 64 Z " /><path fill="rgb(255,93,99)" stroke="rgb(255,93,99)" stroke-width="1" opacity="0.4117647058823529" d="M 240.5 64 L 240 65.5 L 238.5 69 L 238 67.5 L 240.5 64 Z " /><path fill="rgb(255,93,99)" stroke="rgb(255,93,99)" stroke-width="1" opacity="0.4117647058823529" d="M 297.5 65 L 298 68.5 L 297 68.5 L 297.5 65 Z " /><path fill="rgb(255,93,99)" stroke="rgb(255,93,99)" stroke-width="1" opacity="0.4117647058823529" d="M 303.5 65 L 304 96.5 L 303 96.5 L 303.5 65 Z " /><path fill="rgb(255,93,99)" stroke="rgb(255,93,99)" stroke-width="1" opacity="0.4117647058823529" d="M 55.5 66 L 54.5 68 L 55.5 66 Z " /><path fill="rgb(255,93,99)" stroke="rgb(255,93,99)" stroke-width="1" opacity="0.4117647058823529" d="M 102.5 70 L 103.5 72 L 102.5 70 Z " /><path fill="rgb(255,93,99)" stroke="rgb(255,93,99)" stroke-width="1" opacity="0.4117647058823529" d="M 249.5 71 L 250 73.5 L 249 73.5 L 249.5 71 Z " /><path fill="rgb(255,93,99)" stroke="rgb(255,93,99)" stroke-width="1" opacity="0.4117647058823529" d="M 267.5 71 L 272 74.5 L 270.5 75 L 267.5 71 Z " /><path fill="rgb(255,93,99)" stroke="rgb(255,93,99)" stroke-width="1" opacity="0.4117647058823529" d="M 282.5 71 L 279.5 75 L 278 74.5 L 282.5 71 Z " /><path fill="rgb(255,93,99)" stroke="rgb(255,93,99)" stroke-width="1" opacity="0.4117647058823529" d="M 296.5 71 L 297 75.5 L 296 75.5 L 296.5 71 Z " /><path fill="rgb(255,93,99)" stroke="rgb(255,93,99)" stroke-width="1" opacity="0.4117647058823529" d="M 104.5 73 L 105.5 75 L 104.5 73 Z " /><path fill="rgb(255,93,99)" stroke="rgb(255,93,99)" stroke-width="1" opacity="0.4117647058823529" d="M 236.5 73 L 237 75.5 L 236 75.5 L 236.5 73 Z " /><path fill="rgb(255,93,99)" stroke="rgb(255,93,99)" stroke-width="1" opacity="0.4117647058823529" d="M 295.5 77 L 296 79.5 L 293.5 85 L 293 83.5 L 295.5 77 Z " /><path fill="rgb(255,93,99)" stroke="rgb(255,93,99)" stroke-width="1" opacity="0.4117647058823529" d="M 235.5 78 L 236 80.5 L 235 80.5 L 235.5 78 Z " /><path fill="rgb(255,93,99)" stroke="rgb(255,93,99)" stroke-width="1" opacity="0.4117647058823529" d="M 40.5 79 L 41 82.5 L 40 82.5 L 40.5 79 Z " /><path fill="rgb(255,93,99)" stroke="rgb(255,93,99)" stroke-width="1" opacity="0.4117647058823529" d="M 355.5 82 L 356 83.5 L 353.5 88 L 353 86.5 L 355.5 82 Z " /><path fill="rgb(255,93,99)" stroke="rgb(255,93,99)" stroke-width="1" opacity="0.4117647058823529" d="M 435.5 82 L 437 85.5 L 436 85.5 L 435.5 82 Z " /><path fill="rgb(255,93,99)" stroke="rgb(255,93,99)" stroke-width="1" opacity="0.4117647058823529" d="M 372.5 83 L 373 85.5 L 372 85.5 L 372.5 83 Z " /><path fill="rgb(255,93,99)" stroke="rgb(255,93,99)" stroke-width="1" opacity="0.4117647058823529" d="M 292.5 86 L 292 87.5 L 286.5 95 L 284.5 96 L 285.5 94 L 289 91.5 L 292.5 86 Z " /><path fill="rgb(255,93,99)" stroke="rgb(255,93,99)" stroke-width="1" opacity="0.4117647058823529" d="M 446.5 86 L 447 100 Q 441.6 101.5 440 98.5 L 439 93.5 L 440 93.5 L 441 99 L 446 99 L 446.5 86 Z " /><path fill="rgb(255,93,99)" stroke="rgb(255,93,99)" stroke-width="1" opacity="0.4117647058823529" d="M 371.5 87 L 372 90.5 L 371 90.5 L 371.5 87 Z " /><path fill="rgb(255,93,99)" stroke="rgb(255,93,99)" stroke-width="1" opacity="0.4117647058823529" d="M 54.5 88 L 59.5 94 L 54.5 88 Z " /><path fill="rgb(255,93,99)" stroke="rgb(255,93,99)" stroke-width="1" opacity="0.4117647058823529" d="M 40.5 89 L 41 92.5 L 40 92.5 L 40.5 89 Z " /><path fill="rgb(255,93,99)" stroke="rgb(255,93,99)" stroke-width="1" opacity="0.4117647058823529" d="M 351.5 92 L 352 94.5 L 350.5 99 L 350 95.5 L 351.5 92 Z " /><path fill="rgb(255,93,99)" stroke="rgb(255,93,99)" stroke-width="1" opacity="0.4117647058823529" d="M 370.5 93 L 371 98.5 L 370 98.5 L 370.5 93 Z " /><path fill="rgb(255,93,99)" stroke="rgb(255,93,99)" stroke-width="1" opacity="0.4117647058823529" d="M 113.5 95 L 119 95.5 L 113.5 96 L 113.5 95 Z " /><path fill="rgb(255,93,99)" stroke="rgb(255,93,99)" stroke-width="1" opacity="0.4117647058823529" d="M 165.5 95 L 168 95.5 L 165.5 96 L 165.5 95 Z " /><path fill="rgb(255,93,99)" stroke="rgb(255,93,99)" stroke-width="1" opacity="0.4117647058823529" d="M 181.5 95 L 184 95.5 L 181.5 96 L 181.5 95 Z " /><path fill="rgb(255,93,99)" stroke="rgb(255,93,99)" stroke-width="1" opacity="0.4117647058823529" d="M 461.5 95 L 480 95.5 L 461.5 96 L 461.5 95 Z " /><path fill="rgb(255,93,99)" stroke="rgb(255,93,99)" stroke-width="1" opacity="0.4117647058823529" d="M 508.5 95 L 511 95.5 Q 502.1 97.6 498 104.5 L 493.5 113 L 493 111.5 Q 497 102.5 504.5 97 L 508.5 95 Z " /><path fill="rgb(255,93,99)" stroke="rgb(255,93,99)" stroke-width="1" opacity="0.4117647058823529" d="M 518.5 95 Q 524.9 95.7 527 100.5 L 528 103.5 L 527 103.5 L 522.5 97 L 518.5 96 L 518.5 95 Z " /><path fill="rgb(255,93,99)" stroke="rgb(255,93,99)" stroke-width="1" opacity="0.4117647058823529" d="M 281.5 96 L 283 96.5 L 279.5 98 L 279.5 97 L 281.5 96 Z " /><path fill="rgb(255,93,99)" stroke="rgb(255,93,99)" stroke-width="1" opacity="0.4117647058823529" d="M 188.5 97 L 196 101.5 L 193.5 100 L 188.5 98 L 188.5 97 Z " /><path fill="rgb(255,93,99)" stroke="rgb(255,93,99)" stroke-width="1" opacity="0.4117647058823529" d="M 221.5 97 L 222 104 L 235 104.5 L 221 105 L 221.5 97 Z " /><path fill="rgb(255,93,99)" stroke="rgb(255,93,99)" stroke-width="1" opacity="0.4117647058823529" d="M 79.5 100 L 82 100.5 L 79.5 101 L 79.5 100 Z " /><path fill="rgb(255,93,99)" stroke="rgb(255,93,99)" stroke-width="1" opacity="0.4117647058823529" d="M 154.5 100 L 151.5 104 L 154.5 100 Z " /><path fill="rgb(255,93,99)" stroke="rgb(255,93,99)" stroke-width="1" opacity="0.4117647058823529" d="M 349.5 100 L 350 103.5 L 349 103.5 L 349.5 100 Z " /><path fill="rgb(255,93,99)" stroke="rgb(255,93,99)" stroke-width="1" opacity="0.4117647058823529" d="M 43.5 101 L 47 105.5 L 44 103.5 L 43.5 101 Z " /><path fill="rgb(255,93,99)" stroke="rgb(255,93,99)" stroke-width="1" opacity="0.4117647058823529" d="M 171.5 101 L 179 101.5 L 171.5 102 L 171.5 101 Z " /><path fill="rgb(255,93,99)" stroke="rgb(255,93,99)" stroke-width="1" opacity="0.4117647058823529" d="M 197.5 102 L 202.5 108 L 197.5 102 Z " /><path fill="rgb(255,93,99)" stroke="rgb(255,93,99)" stroke-width="1" opacity="0.4117647058823529" d="M 369.5 102 L 370 125.5 L 369 125.5 L 369.5 102 Z " /><path fill="rgb(255,93,99)" stroke="rgb(255,93,99)" stroke-width="1" opacity="0.4117647058823529" d="M 461.5 102 Q 471.6 99.9 475 104.5 L 473.5 104 Q 469.7 101.3 461.5 103 L 461.5 102 Z " /><path fill="rgb(255,93,99)" stroke="rgb(255,93,99)" stroke-width="1" opacity="0.4117647058823529" d="M 511.5 102 L 514 103.5 Q 510.9 107.4 511.5 115 L 511 107.5 L 513 103 L 511.5 102 Z " /><path fill="rgb(255,93,99)" stroke="rgb(255,93,99)" stroke-width="1" opacity="0.4117647058823529" d="M 508.5 103 L 510 103.5 L 504 107 L 497.5 118 L 497 116.5 L 505.5 105 L 508.5 103 Z " /><path fill="rgb(255,93,99)" stroke="rgb(255,93,99)" stroke-width="1" opacity="0.4117647058823529" d="M 164.5 104 L 159.5 110 L 164.5 104 Z " /><path fill="rgb(255,93,99)" stroke="rgb(255,93,99)" stroke-width="1" opacity="0.4117647058823529" d="M 185.5 104 L 189.5 109 L 185.5 104 Z " /><path fill="rgb(255,93,99)" stroke="rgb(255,93,99)" stroke-width="1" opacity="0.4117647058823529" d="M 249.5 104 L 268 104.5 L 249.5 105 L 249.5 104 Z " /><path fill="rgb(255,93,99)" stroke="rgb(255,93,99)" stroke-width="1" opacity="0.4117647058823529" d="M 276.5 104 L 289.5 104 L 290 104.5 L 290 161.5 Q 291.8 168.7 297.5 172 L 301 173.5 L 299.5 174 L 291 166.5 L 289 161.5 L 289 105 L 276.5 105 L 276.5 104 Z " /><path fill="rgb(255,93,99)" stroke="rgb(255,93,99)" stroke-width="1" opacity="0.4117647058823529" d="M 303 104 L 328 104.5 L 304 105 L 304 159.5 L 305 161.5 L 304 161.5 L 303 159.5 L 303 104 Z " /><path fill="rgb(255,93,99)" stroke="rgb(255,93,99)" stroke-width="1" opacity="0.4117647058823529" d="M 528.5 105 L 529 111.5 L 528 111.5 L 528.5 105 Z " /><path fill="rgb(255,93,99)" stroke="rgb(255,93,99)" stroke-width="1" opacity="0.4117647058823529" d="M 148.5 106 L 145.5 110 L 148.5 106 Z " /><path fill="rgb(255,93,99)" stroke="rgb(255,93,99)" stroke-width="1" opacity="0.4117647058823529" d="M 348.5 106 L 349 122.5 L 348 122.5 L 348.5 106 Z " /><path fill="rgb(255,93,99)" stroke="rgb(255,93,99)" stroke-width="1" opacity="0.4117647058823529" d="M 476.5 108 L 477 112.5 L 476 112.5 L 476.5 108 Z " /><path fill="rgb(255,93,99)" stroke="rgb(255,93,99)" stroke-width="1" opacity="0.4117647058823529" d="M 50.5 109 L 55 112.5 L 53.5 112 L 50.5 109 Z " /><path fill="rgb(255,93,99)" stroke="rgb(255,93,99)" stroke-width="1" opacity="0.4117647058823529" d="M 203.5 109 L 208 116.5 L 207 116.5 L 203.5 109 Z " /><path fill="rgb(255,93,99)" stroke="rgb(255,93,99)" stroke-width="1" opacity="0.4117647058823529" d="M 111.5 110 L 112.5 112 L 111.5 110 Z " /><path fill="rgb(255,93,99)" stroke="rgb(255,93,99)" stroke-width="1" opacity="0.4117647058823529" d="M 190.5 110 L 193 114.5 L 192 114.5 L 190.5 110 Z " /><path fill="rgb(255,93,99)" stroke="rgb(255,93,99)" stroke-width="1" opacity="0.4117647058823529" d="M 144.5 111 L 144 112.5 L 141.5 118 L 141 116.5 L 144.5 111 Z " /><path fill="rgb(255,93,99)" stroke="rgb(255,93,99)" stroke-width="1" opacity="0.4117647058823529" d="M 114.5 112 L 120.5 119 L 114.5 112 Z " /><path fill="rgb(255,93,99)" stroke="rgb(255,93,99)" stroke-width="1" opacity="0.4117647058823529" d="M 527.5 113 L 528 115.5 L 522.5 120 L 522.5 119 L 527 115.5 L 527.5 113 Z " /><path fill="rgb(255,93,99)" stroke="rgb(255,93,99)" stroke-width="1" opacity="0.4117647058823529" d="M 492.5 114 L 493 115.5 L 491.5 118 L 491 116.5 L 492.5 114 Z " /><path fill="rgb(255,93,99)" stroke="rgb(255,93,99)" stroke-width="1" opacity="0.4117647058823529" d="M 512.5 116 L 517 119.5 L 515.5 120 L 512.5 116 Z " /><path fill="rgb(255,93,99)" stroke="rgb(255,93,99)" stroke-width="1" opacity="0.4117647058823529" d="M 155.5 118 L 156 120.5 L 155 120.5 L 155.5 118 Z " /><path fill="rgb(255,93,99)" stroke="rgb(255,93,99)" stroke-width="1" opacity="0.4117647058823529" d="M 496.5 119 L 497 120.5 L 495.5 124 L 495 121.5 L 496.5 119 Z " /><path fill="rgb(255,93,99)" stroke="rgb(255,93,99)" stroke-width="1" opacity="0.4117647058823529" d="M 121.5 120 L 124 124.5 L 123 124.5 L 121.5 120 Z " /><path fill="rgb(255,93,99)" stroke="rgb(255,93,99)" stroke-width="1" opacity="0.4117647058823529" d="M 154.5 123 L 155 126.5 L 154 126.5 L 154.5 123 Z " /><path fill="rgb(255,93,99)" stroke="rgb(255,93,99)" stroke-width="1" opacity="0.4117647058823529" d="M 210.5 125 L 211 127.5 L 210 127.5 L 210.5 125 Z " /><path fill="rgb(255,93,99)" stroke="rgb(255,93,99)" stroke-width="1" opacity="0.4117647058823529" d="M 349.5 125 L 350 128.5 L 349 128.5 L 349.5 125 Z " /><path fill="rgb(255,93,99)" stroke="rgb(255,93,99)" stroke-width="1" opacity="0.4117647058823529" d="M 38.5 127 L 39 174 Q 46.7 175.5 48.5 170 L 44.5 175 Q 38.3 175.8 38 174.5 L 38.5 127 Z " /><path fill="rgb(255,93,99)" stroke="rgb(255,93,99)" stroke-width="1" opacity="0.4117647058823529" d="M 195.5 127 L 196 140.5 L 195 140.5 L 195.5 127 Z " /><path fill="rgb(255,93,99)" stroke="rgb(255,93,99)" stroke-width="1" opacity="0.4117647058823529" d="M 104.5 128 L 105.5 130 L 104.5 128 Z " /><path fill="rgb(255,93,99)" stroke="rgb(255,93,99)" stroke-width="1" opacity="0.4117647058823529" d="M 138.5 128 L 139 141.5 L 138 141.5 L 138.5 128 Z " /><path fill="rgb(255,93,99)" stroke="rgb(255,93,99)" stroke-width="1" opacity="0.4117647058823529" d="M 493.5 128 L 494 130.5 L 493 130.5 L 493.5 128 Z " /><path fill="rgb(255,93,99)" stroke="rgb(255,93,99)" stroke-width="1" opacity="0.4117647058823529" d="M 370.5 129 L 371 133.5 L 370 133.5 L 370.5 129 Z " /><path fill="rgb(255,93,99)" stroke="rgb(255,93,99)" stroke-width="1" opacity="0.4117647058823529" d="M 107.5 130 L 110.5 134 L 107.5 130 Z " /><path fill="rgb(255,93,99)" stroke="rgb(255,93,99)" stroke-width="1" opacity="0.4117647058823529" d="M 125.5 130 L 126 132.5 L 125 132.5 L 125.5 130 Z " /><path fill="rgb(255,93,99)" stroke="rgb(255,93,99)" stroke-width="1" opacity="0.4117647058823529" d="M 350.5 131 Q 355.4 150.6 368.5 162 L 373 165.5 L 370.5 164 L 362 156.5 L 352 139.5 L 350.5 131 Z " /><path fill="rgb(255,93,99)" stroke="rgb(255,93,99)" stroke-width="1" opacity="0.4117647058823529" d="M 449.5 131 L 450 134.5 L 449 134.5 L 449.5 131 Z " /><path fill="rgb(255,93,99)" stroke="rgb(255,93,99)" stroke-width="1" opacity="0.4117647058823529" d="M 492.5 132 L 493 134.5 L 492 134.5 L 492.5 132 Z " /><path fill="rgb(255,93,99)" stroke="rgb(255,93,99)" stroke-width="1" opacity="0.4117647058823529" d="M 442.5 134 L 443 137.5 L 442 137.5 L 442.5 134 Z " /><path fill="rgb(255,93,99)" stroke="rgb(255,93,99)" stroke-width="1" opacity="0.4117647058823529" d="M 371.5 135 L 373 141.5 L 372 141.5 L 371.5 135 Z " /><path fill="rgb(255,93,99)" stroke="rgb(255,93,99)" stroke-width="1" opacity="0.4117647058823529" d="M 448.5 137 L 449 139.5 L 448 139.5 L 448.5 137 Z " /><path fill="rgb(255,93,99)" stroke="rgb(255,93,99)" stroke-width="1" opacity="0.4117647058823529" d="M 491.5 137 L 492 141.5 L 491 141.5 L 491.5 137 Z " /><path fill="rgb(255,93,99)" stroke="rgb(255,93,99)" stroke-width="1" opacity="0.4117647058823529" d="M 49.5 141 L 53 147.5 L 51 146.5 L 49.5 141 Z " /><path fill="rgb(255,93,99)" stroke="rgb(255,93,99)" stroke-width="1" opacity="0.4117647058823529" d="M 447.5 141 L 448 143.5 L 445.5 149 L 445 147.5 L 447.5 141 Z " /><path fill="rgb(255,93,99)" stroke="rgb(255,93,99)" stroke-width="1" opacity="0.4117647058823529" d="M 125.5 142 L 126 144.5 L 125 144.5 L 125.5 142 Z " /><path fill="rgb(255,93,99)" stroke="rgb(255,93,99)" stroke-width="1" opacity="0.4117647058823529" d="M 210.5 142 L 211 144.5 L 210 144.5 L 210.5 142 Z " /><path fill="rgb(255,93,99)" stroke="rgb(255,93,99)" stroke-width="1" opacity="0.4117647058823529" d="M 154.5 143 L 155 145.5 L 154 145.5 L 154.5 143 Z " /><path fill="rgb(255,93,99)" stroke="rgb(255,93,99)" stroke-width="1" opacity="0.4117647058823529" d="M 373.5 143 Q 377.1 154.9 385.5 162 L 394 166.5 L 392.5 167 Q 384.8 163.8 380 157.5 L 374 147.5 L 373.5 143 Z " /><path fill="rgb(255,93,99)" stroke="rgb(255,93,99)" stroke-width="1" opacity="0.4117647058823529" d="M 139.5 145 L 140 147.5 L 139 147.5 L 139.5 145 Z " /><path fill="rgb(255,93,99)" stroke="rgb(255,93,99)" stroke-width="1" opacity="0.4117647058823529" d="M 327.5 145 L 328 149.5 L 327 149.5 L 327.5 145 Z " /><path fill="rgb(255,93,99)" stroke="rgb(255,93,99)" stroke-width="1" opacity="0.4117647058823529" d="M 333.5 145 L 334 148.5 L 333 148.5 L 333.5 145 Z " /><path fill="rgb(255,93,99)" stroke="rgb(255,93,99)" stroke-width="1" opacity="0.4117647058823529" d="M 439.5 145 L 440 146.5 Q 436.2 156.2 428.5 162 L 425.5 164 L 427.5 161 L 434 155.5 L 439.5 145 Z " /><path fill="rgb(255,93,99)" stroke="rgb(255,93,99)" stroke-width="1" opacity="0.4117647058823529" d="M 194.5 146 L 195 148.5 L 194 148.5 L 194.5 146 Z " /><path fill="rgb(255,93,99)" stroke="rgb(255,93,99)" stroke-width="1" opacity="0.4117647058823529" d="M 113.5 147 L 114 149.5 L 113 149.5 L 113.5 147 Z " /><path fill="rgb(255,93,99)" stroke="rgb(255,93,99)" stroke-width="1" opacity="0.4117647058823529" d="M 53.5 149 L 54.5 151 L 53.5 149 Z " /><path fill="rgb(255,93,99)" stroke="rgb(255,93,99)" stroke-width="1" opacity="0.4117647058823529" d="M 55.5 152 L 63.5 161 L 55.5 152 Z " /><path fill="rgb(255,93,99)" stroke="rgb(255,93,99)" stroke-width="1" opacity="0.4117647058823529" d="M 141.5 152 L 145 158.5 L 143 157.5 L 141.5 152 Z " /><path fill="rgb(255,93,99)" stroke="rgb(255,93,99)" stroke-width="1" opacity="0.4117647058823529" d="M 326.5 152 L 327 154.5 L 326 154.5 L 326.5 152 Z " /><path fill="rgb(255,93,99)" stroke="rgb(255,93,99)" stroke-width="1" opacity="0.4117647058823529" d="M 332.5 152 L 333 155.5 L 332 155.5 L 332.5 152 Z " /><path fill="rgb(255,93,99)" stroke="rgb(255,93,99)" stroke-width="1" opacity="0.4117647058823529" d="M 122.5 153 L 123 154.5 L 120.5 158 L 121 156.5 L 122.5 153 Z " /><path fill="rgb(255,93,99)" stroke="rgb(255,93,99)" stroke-width="1" opacity="0.4117647058823529" d="M 442.5 154 L 442 155.5 L 433.5 166 L 421.5 173 L 416.5 174 L 416.5 173 Q 430.5 170 438 160.5 L 442.5 154 Z " /><path fill="rgb(255,93,99)" stroke="rgb(255,93,99)" stroke-width="1" opacity="0.4117647058823529" d="M 110.5 156 L 109.5 158 L 110.5 156 Z " /><path fill="rgb(255,93,99)" stroke="rgb(255,93,99)" stroke-width="1" opacity="0.4117647058823529" d="M 206.5 156 L 206 157.5 L 203.5 161 L 205 158.5 L 206.5 156 Z " /><path fill="rgb(255,93,99)" stroke="rgb(255,93,99)" stroke-width="1" opacity="0.4117647058823529" d="M 108.5 159 L 105.5 163 L 108.5 159 Z " /><path fill="rgb(255,93,99)" stroke="rgb(255,93,99)" stroke-width="1" opacity="0.4117647058823529" d="M 119.5 159 L 117.5 162 L 119.5 159 Z " /><path fill="rgb(255,93,99)" stroke="rgb(255,93,99)" stroke-width="1" opacity="0.4117647058823529" d="M 190.5 159 L 188.5 162 L 190.5 159 Z " /><path fill="rgb(255,93,99)" stroke="rgb(255,93,99)" stroke-width="1" opacity="0.4117647058823529" d="M 324.5 159 L 325 160.5 L 320.5 166 L 318.5 167 L 319.5 165 L 322 163.5 L 324.5 159 Z " /><path fill="rgb(255,93,99)" stroke="rgb(255,93,99)" stroke-width="1" opacity="0.4117647058823529" d="M 145.5 160 L 147.5 163 L 145.5 160 Z " /><path fill="rgb(255,93,99)" stroke="rgb(255,93,99)" stroke-width="1" opacity="0.4117647058823529" d="M 159.5 160 L 164.5 166 L 159.5 160 Z " /><path fill="rgb(255,93,99)" stroke="rgb(255,93,99)" stroke-width="1" opacity="0.4117647058823529" d="M 234.5 160 L 235 162.5 L 234 162.5 L 234.5 160 Z " /><path fill="rgb(255,93,99)" stroke="rgb(255,93,99)" stroke-width="1" opacity="0.4117647058823529" d="M 330.5 160 L 331 161.5 Q 328 169 321.5 173 L 318.5 174 L 318.5 173 Q 325.4 171.4 328 165.5 L 330.5 160 Z " /><path fill="rgb(255,93,99)" stroke="rgb(255,93,99)" stroke-width="1" opacity="0.4117647058823529" d="M 65.5 161 L 66.5 163 L 65.5 161 Z " /><path fill="rgb(255,93,99)" stroke="rgb(255,93,99)" stroke-width="1" opacity="0.4117647058823529" d="M 202.5 162 L 197.5 168 L 202.5 162 Z " /><path fill="rgb(255,93,99)" stroke="rgb(255,93,99)" stroke-width="1" opacity="0.4117647058823529" d="M 249.5 162 L 251.5 165 L 253 165.5 L 251.5 166 Q 247.9 164.9 249.5 162 Z " /><path fill="rgb(255,93,99)" stroke="rgb(255,93,99)" stroke-width="1" opacity="0.4117647058823529" d="M 476.5 162 L 477 163.5 L 474 165.5 L 476.5 162 Z " /><path fill="rgb(255,93,99)" stroke="rgb(255,93,99)" stroke-width="1" opacity="0.4117647058823529" d="M 491.5 162 L 494 165.5 L 491 163.5 L 491.5 162 Z " /><path fill="rgb(255,93,99)" stroke="rgb(255,93,99)" stroke-width="1" opacity="0.4117647058823529" d="M 68.5 163 L 73 165.5 L 71.5 166 L 68.5 163 Z " /><path fill="rgb(255,93,99)" stroke="rgb(255,93,99)" stroke-width="1" opacity="0.4117647058823529" d="M 103.5 163 L 102.5 165 L 103.5 163 Z " /><path fill="rgb(255,93,99)" stroke="rgb(255,93,99)" stroke-width="1" opacity="0.4117647058823529" d="M 305.5 163 Q 308.3 168.2 317 167.5 L 310.5 168 L 305.5 163 Z " /><path fill="rgb(255,93,99)" stroke="rgb(255,93,99)" stroke-width="1" opacity="0.4117647058823529" d="M 53.5 164 L 49.5 169 L 53.5 164 Z " /><path fill="rgb(255,93,99)" stroke="rgb(255,93,99)" stroke-width="1" opacity="0.4117647058823529" d="M 55.5 164 L 57.5 167 L 55.5 164 Z " /><path fill="rgb(255,93,99)" stroke="rgb(255,93,99)" stroke-width="1" opacity="0.4117647058823529" d="M 185.5 164 L 183.5 167 L 185.5 164 Z " /><path fill="rgb(255,93,99)" stroke="rgb(255,93,99)" stroke-width="1" opacity="0.4117647058823529" d="M 233.5 164 L 232.5 166 L 233.5 164 Z " /><path fill="rgb(255,93,99)" stroke="rgb(255,93,99)" stroke-width="1" opacity="0.4117647058823529" d="M 423.5 164 L 422.5 166 L 421 165.5 L 423.5 164 Z " /><path fill="rgb(255,93,99)" stroke="rgb(255,93,99)" stroke-width="1" opacity="0.4117647058823529" d="M 112.5 166 L 110.5 169 L 112.5 166 Z " /><path fill="rgb(255,93,99)" stroke="rgb(255,93,99)" stroke-width="1" opacity="0.4117647058823529" d="M 227.5 166 L 231 166.5 L 227.5 167 L 227.5 166 Z " /><path fill="rgb(255,93,99)" stroke="rgb(255,93,99)" stroke-width="1" opacity="0.4117647058823529" d="M 254.5 166 L 258 166.5 L 254.5 167 L 254.5 166 Z " /><path fill="rgb(255,93,99)" stroke="rgb(255,93,99)" stroke-width="1" opacity="0.4117647058823529" d="M 374.5 166 L 378 168.5 L 376.5 168 L 374.5 166 Z " /><path fill="rgb(255,93,99)" stroke="rgb(255,93,99)" stroke-width="1" opacity="0.4117647058823529" d="M 418.5 166 L 420 166.5 L 415.5 168 L 415.5 167 L 418.5 166 Z " /><path fill="rgb(255,93,99)" stroke="rgb(255,93,99)" stroke-width="1" opacity="0.4117647058823529" d="M 469.5 166 L 473 166.5 L 469.5 167 L 469.5 166 Z " /><path fill="rgb(255,93,99)" stroke="rgb(255,93,99)" stroke-width="1" opacity="0.4117647058823529" d="M 495.5 166 L 500 166.5 L 495.5 167 L 495.5 166 Z " /><path fill="rgb(255,93,99)" stroke="rgb(255,93,99)" stroke-width="1" opacity="0.4117647058823529" d="M 59.5 167 L 60.5 169 L 59.5 167 Z " /><path fill="rgb(255,93,99)" stroke="rgb(255,93,99)" stroke-width="1" opacity="0.4117647058823529" d="M 152.5 167 L 154.5 170 L 152.5 167 Z " /><path fill="rgb(255,93,99)" stroke="rgb(255,93,99)" stroke-width="1" opacity="0.4117647058823529" d="M 220.5 167 L 221 173 L 268 173.5 L 220 174 L 220.5 167 Z " /><path fill="rgb(255,93,99)" stroke="rgb(255,93,99)" stroke-width="1" opacity="0.4117647058823529" d="M 395.5 167 L 398 167.5 L 395.5 168 L 395.5 167 Z " /><path fill="rgb(255,93,99)" stroke="rgb(255,93,99)" stroke-width="1" opacity="0.4117647058823529" d="M 461.5 167 L 462 173 L 508.5 173 Q 509.6 172.9 509 167.5 L 510 167.5 Q 510.8 173.8 509.5 174 L 461 174 L 461.5 167 Z " /><path fill="rgb(255,93,99)" stroke="rgb(255,93,99)" stroke-width="1" opacity="0.4117647058823529" d="M 82.5 168 L 92 168.5 L 82.5 169 L 82.5 168 Z " /><path fill="rgb(255,93,99)" stroke="rgb(255,93,99)" stroke-width="1" opacity="0.4117647058823529" d="M 171.5 168 L 178 168.5 L 171.5 169 L 171.5 168 Z " /><path fill="rgb(255,93,99)" stroke="rgb(255,93,99)" stroke-width="1" opacity="0.4117647058823529" d="M 195.5 168 L 194.5 170 L 195.5 168 Z " /><path fill="rgb(255,93,99)" stroke="rgb(255,93,99)" stroke-width="1" opacity="0.4117647058823529" d="M 399.5 168 L 413 168.5 L 399.5 169 L 399.5 168 Z " /><path fill="rgb(255,93,99)" stroke="rgb(255,93,99)" stroke-width="1" opacity="0.4117647058823529" d="M 108.5 169 L 107.5 171 L 104.5 172 L 104.5 171 L 108.5 169 Z " /><path fill="rgb(255,93,99)" stroke="rgb(255,93,99)" stroke-width="1" opacity="0.4117647058823529" d="M 156.5 170 L 161 172.5 L 159.5 173 L 156.5 170 Z " /><path fill="rgb(255,93,99)" stroke="rgb(255,93,99)" stroke-width="1" opacity="0.4117647058823529" d="M 383.5 171 L 388 172.5 L 385.5 173 L 383.5 171 Z " /><path fill="rgb(255,93,99)" stroke="rgb(255,93,99)" stroke-width="1" opacity="0.4117647058823529" d="M 389.5 173 L 392 173.5 L 389.5 174 L 389.5 173 Z " /><path fill="rgb(255,93,99)" stroke="rgb(255,93,99)" stroke-width="1" opacity="0.4117647058823529" d="M 94.5 174 L 97 174.5 L 94.5 175 L 94.5 174 Z " /><path fill="rgb(255,93,99)" stroke="rgb(255,93,99)" stroke-width="1" opacity="0.4117647058823529" d="M 165.5 174 L 168 174.5 L 165.5 175 L 165.5 174 Z " /><path fill="rgb(255,93,99)" stroke="rgb(255,93,99)" stroke-width="1" opacity="0.4117647058823529" d="M 302.5 174 L 305 174.5 L 302.5 175 L 302.5 174 Z " /><path fill="rgb(255,93,99)" stroke="rgb(255,93,99)" stroke-width="1" opacity="0.4117647058823529" d="M 314.5 174 L 317 174.5 L 314.5 175 L 314.5 174 Z " /><path fill="rgb(255,93,99)" stroke="rgb(255,93,99)" stroke-width="1" opacity="0.4117647058823529" d="M 393.5 174 L 398 174.5 L 393.5 175 L 393.5 174 Z " /><path fill="rgb(255,93,99)" stroke="rgb(255,93,99)" stroke-width="1" opacity="0.4117647058823529" d="M 410.5 174 L 415 174.5 L 410.5 175 L 410.5 174 Z " /><path fill="rgb(255,93,99)" stroke="rgb(255,93,99)" stroke-width="1" opacity="0.996078431372549" d="M 397.5 50 L 401 50.5 L 397.5 51 L 397.5 50 Z " /><path fill="rgb(255,93,99)" stroke="rgb(255,93,99)" stroke-width="1" opacity="0.996078431372549" d="M 404.5 50 L 408 50.5 L 404.5 51 L 404.5 50 Z " /><path fill="rgb(255,93,99)" stroke="rgb(255,93,99)" stroke-width="1" opacity="0.996078431372549" d="M 425.5 56 L 426.5 58 L 425.5 56 Z " /><path fill="rgb(255,93,99)" stroke="rgb(255,93,99)" stroke-width="1" opacity="0.996078431372549" d="M 444.5 56 L 445 62.5 L 444 62.5 L 444.5 56 Z " /><path fill="rgb(255,93,99)" stroke="rgb(255,93,99)" stroke-width="1" opacity="0.996078431372549" d="M 374.5 59 L 373.5 61 L 374.5 59 Z " /><path fill="rgb(255,93,99)" stroke="rgb(255,93,99)" stroke-width="1" opacity="0.996078431372549" d="M 388.5 59 L 387.5 61 L 388.5 59 Z " /><path fill="rgb(255,93,99)" stroke="rgb(255,93,99)" stroke-width="1" opacity="0.996078431372549" d="M 431.5 60 L 432.5 62 L 431.5 60 Z " /><path fill="rgb(255,93,99)" stroke="rgb(255,93,99)" stroke-width="1" opacity="0.996078431372549" d="M 385.5 61 L 379.5 68 L 385.5 61 Z " /><path fill="rgb(255,93,99)" stroke="rgb(255,93,99)" stroke-width="1" opacity="0.996078431372549" d="M 370.5 62 L 366.5 67 L 370.5 62 Z " /><path fill="rgb(255,93,99)" stroke="rgb(255,93,99)" stroke-width="1" opacity="0.996078431372549" d="M 422.5 62 L 427.5 68 L 422.5 62 Z " /><path fill="rgb(255,93,99)" stroke="rgb(255,93,99)" stroke-width="1" opacity="0.996078431372549" d="M 297.5 69 L 298 71.5 L 297 71.5 L 297.5 69 Z " /><path fill="rgb(255,93,99)" stroke="rgb(255,93,99)" stroke-width="1" opacity="0.996078431372549" d="M 364.5 69 L 362.5 72 L 364.5 69 Z " /><path fill="rgb(255,93,99)" stroke="rgb(255,93,99)" stroke-width="1" opacity="0.996078431372549" d="M 378.5 69 L 377.5 71 L 378.5 69 Z " /><path fill="rgb(255,93,99)" stroke="rgb(255,93,99)" stroke-width="1" opacity="0.996078431372549" d="M 429.5 70 L 430.5 72 L 429.5 70 Z " /><path fill="rgb(255,93,99)" stroke="rgb(255,93,99)" stroke-width="1" opacity="0.996078431372549" d="M 361.5 73 L 360.5 75 L 361.5 73 Z " /><path fill="rgb(255,93,99)" stroke="rgb(255,93,99)" stroke-width="1" opacity="0.996078431372549" d="M 445.5 79 L 446 85.5 L 445 85.5 L 445.5 79 Z " /><path fill="rgb(255,93,99)" stroke="rgb(255,93,99)" stroke-width="1" opacity="0.996078431372549" d="M 291.5 89 L 290.5 91 L 291.5 89 Z " /><path fill="rgb(255,93,99)" stroke="rgb(255,93,99)" stroke-width="1" opacity="0.996078431372549" d="M 480.5 95 L 487 95.5 L 480.5 96 L 480.5 95 Z " /><path fill="rgb(255,93,99)" stroke="rgb(255,93,99)" stroke-width="1" opacity="0.996078431372549" d="M 488.5 95 L 489 123.5 L 490 124.5 L 488 125.5 L 488.5 95 Z " /><path fill="rgb(255,93,99)" stroke="rgb(255,93,99)" stroke-width="1" opacity="0.996078431372549" d="M 511.5 95 L 514 95.5 L 511.5 96 L 511.5 95 Z " /><path fill="rgb(255,93,99)" stroke="rgb(255,93,99)" stroke-width="1" opacity="0.996078431372549" d="M 461.5 96 L 462 101.5 L 461 101.5 L 461.5 96 Z " /><path fill="rgb(255,93,99)" stroke="rgb(255,93,99)" stroke-width="1" opacity="0.996078431372549" d="M 327.5 97 L 328 103.5 L 327 103.5 L 327.5 97 Z " /><path fill="rgb(255,93,99)" stroke="rgb(255,93,99)" stroke-width="1" opacity="0.996078431372549" d="M 522.5 97 L 525.5 101 L 522.5 97 Z " /><path fill="rgb(255,93,99)" stroke="rgb(255,93,99)" stroke-width="1" opacity="0.996078431372549" d="M 369.5 98 L 370 101.5 L 369 101.5 L 369.5 98 Z " /><path fill="rgb(255,93,99)" stroke="rgb(255,93,99)" stroke-width="1" opacity="0.996078431372549" d="M 276.5 99 L 277 103.5 L 276 103.5 L 276.5 99 Z " /><path fill="rgb(255,93,99)" stroke="rgb(255,93,99)" stroke-width="1" opacity="0.996078431372549" d="M 499.5 103 L 498.5 105 L 499.5 103 Z " /><path fill="rgb(255,93,99)" stroke="rgb(255,93,99)" stroke-width="1" opacity="0.996078431372549" d="M 507.5 103 L 506.5 105 L 507.5 103 Z " /><path fill="rgb(255,93,99)" stroke="rgb(255,93,99)" stroke-width="1" opacity="0.996078431372549" d="M 475.5 105 L 477 107.5 L 476 107.5 L 475.5 105 Z " /><path fill="rgb(255,93,99)" stroke="rgb(255,93,99)" stroke-width="1" opacity="0.996078431372549" d="M 497.5 106 L 496.5 108 L 497.5 106 Z " /><path fill="rgb(255,93,99)" stroke="rgb(255,93,99)" stroke-width="1" opacity="0.996078431372549" d="M 502.5 108 L 500.5 111 L 502.5 108 Z " /><path fill="rgb(255,93,99)" stroke="rgb(255,93,99)" stroke-width="1" opacity="0.996078431372549" d="M 369.5 126 L 370 128.5 L 369 128.5 L 369.5 126 Z " /><path fill="rgb(255,93,99)" stroke="rgb(255,93,99)" stroke-width="1" opacity="0.996078431372549" d="M 490.5 142 L 491 162.5 L 490 162.5 L 490.5 142 Z " /><path fill="rgb(255,93,99)" stroke="rgb(255,93,99)" stroke-width="1" opacity="0.996078431372549" d="M 332.5 149 L 333 151.5 L 332 151.5 L 332.5 149 Z " /><path fill="rgb(255,93,99)" stroke="rgb(255,93,99)" stroke-width="1" opacity="0.996078431372549" d="M 358.5 149 L 359.5 151 L 358.5 149 Z " /><path fill="rgb(255,93,99)" stroke="rgb(255,93,99)" stroke-width="1" opacity="0.996078431372549" d="M 360.5 152 L 361.5 154 L 360.5 152 Z " /><path fill="rgb(255,93,99)" stroke="rgb(255,93,99)" stroke-width="1" opacity="0.996078431372549" d="M 376.5 152 L 377.5 154 L 376.5 152 Z " /><path fill="rgb(255,93,99)" stroke="rgb(255,93,99)" stroke-width="1" opacity="0.996078431372549" d="M 442.5 153 L 441.5 155 L 442.5 153 Z " /><path fill="rgb(255,93,99)" stroke="rgb(255,93,99)" stroke-width="1" opacity="0.996078431372549" d="M 378.5 155 L 379.5 157 L 378.5 155 Z " /><path fill="rgb(255,93,99)" stroke="rgb(255,93,99)" stroke-width="1" opacity="0.996078431372549" d="M 363.5 156 L 368.5 162 L 363.5 156 Z " /><path fill="rgb(255,93,99)" stroke="rgb(255,93,99)" stroke-width="1" opacity="0.996078431372549" d="M 440.5 156 L 439.5 158 L 440.5 156 Z " /><path fill="rgb(255,93,99)" stroke="rgb(255,93,99)" stroke-width="1" opacity="0.996078431372549" d="M 432.5 158 L 430.5 161 L 432.5 158 Z " /><path fill="rgb(255,93,99)" stroke="rgb(255,93,99)" stroke-width="1" opacity="0.996078431372549" d="M 381.5 159 L 383.5 162 L 381.5 159 Z " /><path fill="rgb(255,93,99)" stroke="rgb(255,93,99)" stroke-width="1" opacity="0.996078431372549" d="M 437.5 160 L 433.5 165 L 437.5 160 Z " /><path fill="rgb(255,93,99)" stroke="rgb(255,93,99)" stroke-width="1" opacity="0.996078431372549" d="M 324.5 161 L 323.5 163 L 324.5 161 Z " /><path fill="rgb(255,93,99)" stroke="rgb(255,93,99)" stroke-width="1" opacity="0.996078431372549" d="M 427.5 162 L 426.5 164 L 427.5 162 Z " /><path fill="rgb(255,93,99)" stroke="rgb(255,93,99)" stroke-width="1" opacity="0.996078431372549" d="M 386.5 163 L 387.5 165 L 386.5 163 Z " /><path fill="rgb(255,93,99)" stroke="rgb(255,93,99)" stroke-width="1" opacity="0.996078431372549" d="M 305.5 164 L 307.5 167 L 305.5 164 Z " /><path fill="rgb(255,93,99)" stroke="rgb(255,93,99)" stroke-width="1" opacity="0.996078431372549" d="M 372.5 164 L 373.5 166 L 372.5 164 Z " /><path fill="rgb(255,93,99)" stroke="rgb(255,93,99)" stroke-width="1" opacity="0.996078431372549" d="M 476.5 164 L 475.5 166 L 476.5 164 Z " /><path fill="rgb(255,93,99)" stroke="rgb(255,93,99)" stroke-width="1" opacity="0.996078431372549" d="M 491.5 164 L 495 166.5 L 493.5 167 L 491.5 164 Z " /><path fill="rgb(255,93,99)" stroke="rgb(255,93,99)" stroke-width="1" opacity="0.996078431372549" d="M 327.5 165 L 326.5 167 L 327.5 165 Z " /><path fill="rgb(255,93,99)" stroke="rgb(255,93,99)" stroke-width="1" opacity="0.996078431372549" d="M 292.5 166 L 293.5 168 L 292.5 166 Z " /><path fill="rgb(255,93,99)" stroke="rgb(255,93,99)" stroke-width="1" opacity="0.996078431372549" d="M 430.5 166 L 429.5 168 L 430.5 166 Z " /><path fill="rgb(255,93,99)" stroke="rgb(255,93,99)" stroke-width="1" opacity="0.996078431372549" d="M 296.5 170 L 297.5 172 L 296.5 170 Z " /><path fill="rgb(255,93,99)" stroke="rgb(255,93,99)" stroke-width="1" opacity="0.996078431372549" d="M 322.5 170 L 321.5 172 L 322.5 170 Z " /><path fill="rgb(255,93,99)" stroke="rgb(255,93,99)" stroke-width="1" opacity="0.996078431372549" d="M 305.5 174 L 308 174.5 L 305.5 175 L 305.5 174 Z " /><path fill="rgb(255,93,99)" stroke="rgb(255,93,99)" stroke-width="1" opacity="0.996078431372549" d="M 311.5 174 L 314 174.5 L 311.5 175 L 311.5 174 Z " /><path fill="rgb(255,93,99)" stroke="rgb(255,93,99)" stroke-width="1" opacity="0.996078431372549" d="M 398.5 174 L 402 174.5 L 398.5 175 L 398.5 174 Z " /><path fill="rgb(255,93,99)" stroke="rgb(255,93,99)" stroke-width="1" opacity="0.996078431372549" d="M 405.5 174 L 410 174.5 L 405.5 175 L 405.5 174 Z " /><path fill="rgb(191,30,233)" stroke="rgb(191,30,233)" stroke-width="1" opacity="0.8980392156862745" d="M 664.5 50 L 679.5 50 L 689 56.5 Q 692.5 60.5 691 69.5 L 686.5 75 L 681.5 76 L 677.5 75 L 674 71.5 Q 673.1 64.7 675 62 L 679 59.5 L 676.5 57 L 667.5 57 L 660 63.5 L 656 74.5 L 656 97 L 675 97 L 675 105 L 656.5 105 L 656 105.5 L 656 161.5 L 658.5 165 Q 665.1 168.1 675 167 L 675 173.5 L 674.5 174 L 627 174 L 627 167 L 633.5 167 L 638.5 166 L 641 163.5 L 642 159.5 L 642 105 L 628 105 L 628 97 L 642 97 L 642 92.5 L 642 90.5 Q 640.7 65.2 654.5 55 L 664.5 50 Z " /><path fill="rgb(191,30,233)" stroke="rgb(191,30,233)" stroke-width="1" opacity="0.8980392156862745" d="M 704 65 L 710.5 65 L 711 65.5 L 711 97 L 735 97 L 735 105 L 711 105 L 711 159.5 L 715.5 166 L 724.5 167 L 729 163.5 Q 734.5 156.8 734 145 L 741 145 L 741 148.5 L 739 159.5 L 736 165.5 L 728.5 173 Q 722 177 709.5 175 Q 701.6 172.9 698 166.5 L 696 161.5 L 696 105 L 683 105 L 683 98 Q 691.5 97.3 696 91.5 L 703 76.5 L 704 65 Z " /><path fill="rgb(191,30,233)" stroke="rgb(191,30,233)" stroke-width="1" opacity="0.8980392156862745" d="M 565.5 95 L 586.5 95 Q 595.9 97.1 601 103.5 L 605 114.5 L 605 162.5 L 608.5 167 L 617.5 166 Q 624.5 169.5 617.5 173 Q 612.1 176.6 601.5 175 Q 595.4 173.6 593 168.5 L 590.5 163 Q 584 171.5 572.5 175 L 553.5 175 Q 545.2 172.9 541 166.5 Q 537.2 161.8 539 151.5 Q 541.6 144.1 547.5 140 L 565.5 131 L 577.5 128 L 590 127 L 590 113.5 L 584.5 105 Q 579 100 566.5 102 L 558 106 L 558 109.5 Q 562 112.5 562 119.5 L 557.5 126 L 552.5 127 L 546.5 125 L 544 122.5 Q 541.5 119 543 111.5 L 551.5 101 L 565.5 95 Z M 586 134 L 573 137 L 564 141 Q 557 145 555 153 Q 554 160 557 164 L 563 168 Q 576 170 582 163 Q 588 158 590 148 L 590 135 Q 590 134 586 134 Z " /><path fill="rgb(255,93,99)" stroke="rgb(255,93,99)" stroke-width="1" opacity="1" d="M 401.5 50 L 418.5 53 L 433.5 62 L 440.5 50 L 444 50.5 L 444 62.5 L 445 63.5 L 445 85.5 L 446 86.5 L 446 99 L 441 99 L 441 95.5 L 431 71.5 L 422.5 62 L 410.5 56 L 395.5 56 Q 384.9 59.4 379 67.5 L 374 76.5 L 370 91.5 Q 371.5 97 369 98.5 L 369 128.5 L 374 148.5 L 383.5 162 L 397.5 169 L 414.5 169 Q 426.1 166.1 433 158.5 Q 442.4 148.2 444 131 L 449 131 L 449 134.5 L 443 152.5 L 431.5 166 L 417.5 173 L 402.5 175 L 401.5 174 L 389.5 173 L 377.5 168 L 362 154.5 L 351 132.5 L 349 122.5 L 349 106.5 L 352 92.5 L 357 80.5 Q 363 69 372.5 61 L 386.5 53 L 401.5 50 Z " /><path fill="rgb(255,93,99)" stroke="rgb(255,93,99)" stroke-width="1" opacity="1" d="M 298 65 L 303 65.5 L 303 97 L 326.5 97 L 327 97.5 L 327 104 L 303 104 L 303 160.5 L 307.5 167 Q 310.7 169.3 317.5 168 L 325 161.5 L 328 151.5 L 328 145 L 333 145 L 333 148.5 L 331 158.5 L 323.5 170 Q 318.1 174.6 308.5 175 Q 307.3 172.8 302.5 174 L 294 168.5 L 290 160.5 L 290 104 L 277 104 L 277 99 Q 287.1 97.4 292 89.5 Q 298 79.9 298 65 Z " /><path fill="rgb(255,93,99)" stroke="rgb(255,93,99)" stroke-width="1" opacity="1" d="M 487.5 95 L 488.5 126 L 496 108.5 L 503.5 99 L 506.5 97 L 515.5 95 Q 522.9 96.1 526 101.5 Q 528.7 104.8 528 111.5 L 524.5 118 L 519.5 120 L 513 116.5 L 512 108.5 Q 514.8 106.5 514 102 L 507.5 103 L 500 110.5 L 495 120.5 L 491 135.5 Q 492.5 141 490 142.5 L 490 162.5 L 493.5 167 L 509 167 L 509 173 L 462.5 173 L 462 172.5 L 462 167 L 473.5 167 L 477 164.5 L 477 106.5 L 472.5 102 L 462 102 L 462 96 L 486.5 96 L 487.5 95 Z " /><path fill="rgb(253,252,252)" stroke="rgb(253,252,252)" stroke-width="1" opacity="0.7607843137254902" d="M 376.5 190 Q 384.3 188.2 386 192.5 Q 386.8 196.3 384.5 197 Q 380.8 197.8 380 195.5 L 381 191 L 377 193.5 L 376 204 L 381 204.5 L 376 205 L 376 222.5 L 377.5 224 L 381 224.5 L 368.5 225 L 368.5 224 Q 371.8 225.1 371 222.5 L 372 221.5 L 372 205 L 368 204.5 L 372 204 Q 370 193.3 376.5 190 Z " /><path fill="rgb(253,252,252)" stroke="rgb(253,252,252)" stroke-width="1" opacity="0.7607843137254902" d="M 49.5 191 L 52 191.5 L 47 198 Q 53 196 51 202 Q 45.5 203.3 44 199.5 L 47.5 192 L 49.5 191 Z " /><path fill="rgb(253,252,252)" stroke="rgb(253,252,252)" stroke-width="1" opacity="0.7607843137254902" d="M 58.5 191 L 61 191.5 L 56 197.5 L 60 198 Q 62.3 204 55.5 202 Q 52.8 200.8 54 195.5 L 58.5 191 Z " /><path fill="rgb(253,252,252)" stroke="rgb(253,252,252)" stroke-width="1" opacity="0.7607843137254902" d="M 74.5 191 Q 84.1 189.7 88 193 Q 86.9 189.7 91 191 Q 90 199.4 92 204 Q 88.3 205.5 89 202.5 Q 87.5 196 82.5 193 L 78.5 192 L 73 195.5 L 71 199.5 L 70 212.5 L 71 217.5 L 74 223 L 81.5 225 L 88 220.5 L 90 215 Q 93.3 213.7 92 218.5 L 86.5 225 Q 82.7 227.7 74.5 226 L 67 220.5 Q 62.2 215.3 64 203.5 L 69 194 L 74.5 191 Z " /><path fill="rgb(253,252,252)" stroke="rgb(253,252,252)" stroke-width="1" opacity="0.7607843137254902" d="M 274.5 191 L 282.5 191 L 283 191.5 L 283 222.5 L 287 224.5 L 279.5 225 Q 278 222.5 276.5 226 Q 266 228 264 221.5 L 263 210.5 L 267.5 204 L 276.5 203 L 278 203.5 L 278 193.5 L 276.5 192 Q 273.5 192.5 274.5 191 Z M 273 204 L 270 205 L 268 211 L 269 222 Q 270 225 275 225 L 278 222 L 278 208 Q 277 203 273 204 Z " /><path fill="rgb(253,252,252)" stroke="rgb(253,252,252)" stroke-width="1" opacity="0.7607843137254902" d="M 531.5 191 L 539.5 191 L 540 191.5 L 540 222.5 L 544 224.5 L 536.5 225 Q 535 222.5 533.5 226 Q 523 228 521 221.5 L 520 210.5 L 524.5 204 L 533.5 203 L 535 203.5 L 535 193.5 L 533.5 192 Q 530.5 192.5 531.5 191 Z M 530 204 L 527 205 L 525 211 L 526 222 Q 527 225 532 225 L 535 222 L 535 208 Q 535 203 530 204 Z " /><path fill="rgb(253,252,252)" stroke="rgb(253,252,252)" stroke-width="1" opacity="0.7607843137254902" d="M 626.5 191 L 634.5 191 L 635 191.5 L 635 222.5 L 639 224.5 L 626.5 225 L 626.5 224 L 630 222.5 L 630 193.5 L 628.5 192 Q 625.5 192.5 626.5 191 Z " /><path fill="rgb(253,252,252)" stroke="rgb(253,252,252)" stroke-width="1" opacity="0.7607843137254902" d="M 667.5 191 L 675.5 191 L 676 191.5 L 676 222.5 L 680 224.5 L 672.5 225 Q 671 222.5 669.5 226 Q 659 228 657 221.5 L 656 210.5 L 660.5 204 L 669.5 203 L 671 203.5 L 671 193.5 L 669.5 192 Q 666.5 192.5 667.5 191 Z M 666 204 L 663 205 L 661 211 L 662 222 Q 663 225 668 225 L 671 222 L 671 208 Q 671 203 666 204 Z " /><path fill="rgb(253,252,252)" stroke="rgb(253,252,252)" stroke-width="1" opacity="0.7607843137254902" d="M 719.5 191 L 727.5 191 L 728 191.5 L 728 222.5 L 732 224.5 L 724.5 225 Q 723 222.5 721.5 226 Q 711 228 709 221.5 L 708 210.5 L 712.5 204 L 721.5 203 L 723 203.5 L 723 193.5 L 721.5 192 Q 718.5 192.5 719.5 191 Z M 718 204 L 715 205 L 713 211 L 714 222 Q 715 225 720 225 L 723 222 L 723 208 Q 723 203 718 204 Z " /><path fill="rgb(253,252,252)" stroke="rgb(253,252,252)" stroke-width="1" opacity="0.7607843137254902" d="M 733.5 191 Q 738 190 739 192.5 L 739 197.5 L 734.5 202 Q 730.8 203 732 200 L 735 198.5 L 736 195 L 732 193.5 L 733.5 191 Z " /><path fill="rgb(253,252,252)" stroke="rgb(253,252,252)" stroke-width="1" opacity="0.7607843137254902" d="M 742.5 191 Q 747 190 748 192.5 L 748 197.5 L 743.5 202 Q 739.8 203 741 200 L 745 197.5 Q 746.3 193.8 742.5 195 L 741 192.5 L 742.5 191 Z " /><path fill="rgb(253,252,252)" stroke="rgb(253,252,252)" stroke-width="1" opacity="0.7607843137254902" d="M 188.5 193 Q 192.3 192.3 193 194.5 L 191.5 197 Q 187.8 197.8 187 195.5 L 188.5 193 Z " /><path fill="rgb(253,252,252)" stroke="rgb(253,252,252)" stroke-width="1" opacity="0.7607843137254902" d="M 645.5 193 Q 649.3 192.3 650 194.5 L 648.5 197 Q 644.8 197.8 644 195.5 L 645.5 193 Z " /><path fill="rgb(253,252,252)" stroke="rgb(253,252,252)" stroke-width="1" opacity="0.7607843137254902" d="M 390.5 195 L 392 195.5 L 392 204 L 398.5 204 L 398.5 205 L 392 205 L 392 222.5 Q 394.5 227.5 397 222.5 L 398 218 Q 401.3 216.7 400 221.5 L 396.5 226 Q 389.5 227.5 388 223.5 L 387 221.5 L 387 205 L 384 204.5 L 388 201.5 L 390.5 195 Z " /><path fill="rgb(253,252,252)" stroke="rgb(253,252,252)" stroke-width="1" opacity="0.7607843137254902" d="M 107.5 203 Q 112.8 201.8 114 204.5 Q 115 209 112.5 210 Q 106.8 211.8 109 205.5 L 106 207.5 Q 102.9 212.9 104 222.5 L 109 224.5 L 95.5 225 L 95.5 224 L 99 222.5 L 99 206.5 L 97.5 205 L 95 204.5 L 103 204 L 103.5 208 L 107.5 203 Z " /><path fill="rgb(253,252,252)" stroke="rgb(253,252,252)" stroke-width="1" opacity="0.7607843137254902" d="M 122.5 203 Q 130.5 201.5 133 205.5 L 135 208.5 L 136 215 L 121 215 L 121 220.5 L 125.5 225 L 127.5 225 L 133 220.5 Q 132.2 217.9 135.5 219 L 135 220.5 L 131.5 225 L 122.5 226 L 117 221.5 Q 114.3 217.7 116 209.5 L 120.5 204 L 122.5 203 Z M 126 204 L 124 205 Q 120 208 121 214 L 130 214 L 131 213 L 130 208 L 126 204 Z " /><path fill="rgb(253,252,252)" stroke="rgb(253,252,252)" stroke-width="1" opacity="0.7607843137254902" d="M 144.5 203 Q 152.7 201.9 156 204 L 158 208.5 L 158 224 L 162 224.5 Q 160.8 227.3 155.5 226 L 152.5 224 Q 149.9 227.4 142.5 226 L 139 223.5 L 139 218.5 L 143.5 214 L 153 212 L 152 205 L 147.5 204 L 145 205 L 146 209.5 Q 145.3 211.8 141.5 211 Q 139.3 210.3 140 206.5 L 144.5 203 Z M 153 213 L 145 216 L 144 219 Q 143 224 147 225 L 150 224 L 153 220 L 153 213 Z " /><path fill="rgb(253,252,252)" stroke="rgb(253,252,252)" stroke-width="1" opacity="0.7607843137254902" d="M 170.5 203 Q 180 201 182 206.5 Q 182.8 210.3 180.5 211 Q 176.8 211.8 176 209.5 L 177 205.5 L 173.5 204 Q 167.4 207.4 169 218.5 L 172.5 224 L 175.5 225 L 178 224 L 180 219 Q 183 217.8 182 221.5 L 179.5 225 L 170.5 226 L 165 221.5 L 164 210.5 L 167.5 205 L 170.5 203 Z " /><path fill="rgb(253,252,252)" stroke="rgb(253,252,252)" stroke-width="1" opacity="0.7607843137254902" d="M 205.5 203 L 213.5 203 L 217 205 L 220 211.5 L 220 217.5 L 217 224 L 213.5 226 L 205.5 226 L 201 222.5 Q 198.1 218.9 199 211.5 L 202.5 205 L 205.5 203 Z M 209 204 L 204 211 L 205 222 Q 206 225 211 225 L 215 219 L 214 208 Q 213 203 209 204 Z " /><path fill="rgb(253,252,252)" stroke="rgb(253,252,252)" stroke-width="1" opacity="0.7607843137254902" d="M 234.5 203 Q 242.2 201.3 244 205.5 Q 246.8 211.7 245 222.5 L 246.5 224 L 249 224.5 L 237.5 225 L 237.5 224 L 240 222.5 L 240 208.5 L 239 206 L 235.5 205 L 232 207.5 L 231 209.5 L 231 222.5 L 234 224.5 L 222.5 225 L 222.5 224 L 226 222.5 L 226 206.5 L 224.5 206 L 222 204.5 L 230 204 L 230.5 206 L 234.5 203 Z " /><path fill="rgb(253,252,252)" stroke="rgb(253,252,252)" stroke-width="1" opacity="0.7607843137254902" d="M 296.5 203 Q 304.5 201.5 307 205.5 L 309 208.5 L 310 215 L 295 215 L 295 220.5 L 299.5 225 L 301.5 225 L 307 220.5 Q 306.2 217.9 309.5 219 L 309 220.5 L 305.5 225 L 296.5 226 L 291 221.5 Q 288.3 217.7 290 209.5 L 294.5 204 L 296.5 203 Z M 300 204 L 298 205 Q 294 208 295 214 L 304 214 L 305 213 L 304 208 L 300 204 Z " /><path fill="rgb(253,252,252)" stroke="rgb(253,252,252)" stroke-width="1" opacity="0.7607843137254902" d="M 329.5 203 L 341 204 L 341 210.5 L 339 211 L 335.5 205 L 332.5 204 L 329 206.5 Q 328.3 210.3 330.5 211 L 339.5 213 L 342 215.5 L 343 220.5 L 338.5 226 Q 331.1 227.4 328.5 224 L 325 225 L 325 218 L 328 218 L 331.5 224 L 335.5 225 L 339 222.5 Q 340.9 217.1 337.5 218 L 329.5 216 L 326 212.5 L 325 209.5 L 329.5 203 Z " /><path fill="rgb(253,252,252)" stroke="rgb(253,252,252)" stroke-width="1" opacity="0.7607843137254902" d="M 351.5 203 L 359.5 203 L 363 205 L 366 211.5 L 366 217.5 L 363 224 L 359.5 226 L 351.5 226 L 347 222.5 Q 344.1 218.9 345 211.5 L 348.5 205 L 351.5 203 Z M 355 204 L 350 211 L 351 222 Q 351 225 357 225 L 361 219 L 360 208 Q 360 203 355 204 Z " /><path fill="rgb(253,252,252)" stroke="rgb(253,252,252)" stroke-width="1" opacity="0.7607843137254902" d="M 443.5 203 Q 451.7 201.9 455 204 L 457 208.5 L 457 224 L 461 224.5 Q 459.8 227.3 454.5 226 L 451.5 224 Q 448.9 227.4 441.5 226 L 438 223.5 L 438 218.5 L 442.5 214 L 452 212 L 451 205 L 446.5 204 L 444 205 L 445 209.5 Q 444.3 211.8 440.5 211 Q 438.3 210.3 439 206.5 L 443.5 203 Z M 452 213 L 444 216 L 443 219 Q 442 224 446 225 L 449 224 L 452 220 L 452 213 Z " /><path fill="rgb(253,252,252)" stroke="rgb(253,252,252)" stroke-width="1" opacity="0.7607843137254902" d="M 475.5 203 Q 480.8 201.8 482 204.5 Q 483 209 480.5 210 Q 474.8 211.8 477 205.5 L 474 207.5 Q 470.9 212.9 472 222.5 L 477 224.5 L 463.5 225 L 463.5 224 L 467 222.5 L 467 206.5 L 465.5 205 L 463 204.5 L 471 204 L 471.5 208 L 475.5 203 Z " /><path fill="rgb(253,252,252)" stroke="rgb(253,252,252)" stroke-width="1" opacity="0.7607843137254902" d="M 490.5 203 Q 498.5 201.5 501 205.5 L 503 208.5 L 504 215 L 489 215 L 489 220.5 L 493.5 225 L 495.5 225 L 501 220.5 Q 500.2 217.9 503.5 219 L 503 220.5 L 499.5 225 L 490.5 226 L 485 221.5 Q 482.3 217.7 484 209.5 L 488.5 204 L 490.5 203 Z M 494 204 L 492 205 Q 488 208 489 214 L 498 214 L 499 213 L 498 208 L 494 204 Z " /><path fill="rgb(253,252,252)" stroke="rgb(253,252,252)" stroke-width="1" opacity="0.7607843137254902" d="M 552.5 203 Q 560.5 201.5 563 205.5 L 565 208.5 L 566 215 L 551 215 L 551 220.5 L 555.5 225 L 557.5 225 L 563 220.5 Q 562.2 217.9 565.5 219 L 565 220.5 L 561.5 225 L 552.5 226 L 547 221.5 Q 544.3 217.7 546 209.5 L 550.5 204 L 552.5 203 Z M 556 204 L 554 205 Q 550 208 551 214 L 560 214 L 561 213 L 560 208 L 556 204 Z " /><path fill="rgb(253,252,252)" stroke="rgb(253,252,252)" stroke-width="1" opacity="0.7607843137254902" d="M 587.5 203 Q 597 201 599 206.5 Q 599.8 210.3 597.5 211 Q 593.8 211.8 593 209.5 L 594 205.5 L 590.5 204 Q 584.4 207.4 586 218.5 L 589.5 224 L 592.5 225 L 595 224 L 597 219 Q 600 217.8 599 221.5 L 596.5 225 L 587.5 226 L 582 221.5 L 581 210.5 L 584.5 205 L 587.5 203 Z " /><path fill="rgb(253,252,252)" stroke="rgb(253,252,252)" stroke-width="1" opacity="0.7607843137254902" d="M 607.5 203 Q 615.7 201.9 619 204 L 621 208.5 L 621 224 L 625 224.5 Q 623.8 227.3 618.5 226 L 615.5 224 Q 612.9 227.4 605.5 226 L 602 223.5 L 602 218.5 L 606.5 214 L 616 212 L 615 205 L 610.5 204 L 608 205 L 609 209.5 Q 608.3 211.8 604.5 211 Q 602.3 210.3 603 206.5 L 607.5 203 Z M 616 213 L 608 216 L 607 219 Q 606 224 610 225 L 613 224 L 616 220 L 616 213 Z " /><path fill="rgb(253,252,252)" stroke="rgb(253,252,252)" stroke-width="1" opacity="0.7607843137254902" d="M 688.5 203 Q 696.7 201.9 700 204 L 702 208.5 L 702 224 L 706 224.5 Q 704.8 227.3 699.5 226 L 696.5 224 Q 693.9 227.4 686.5 226 L 683 223.5 L 683 218.5 L 687.5 214 L 697 212 L 696 205 L 691.5 204 L 689 205 L 690 209.5 Q 689.3 211.8 685.5 211 Q 683.3 210.3 684 206.5 L 688.5 203 Z M 697 213 L 689 216 L 688 219 Q 687 224 691 225 L 694 224 L 697 220 L 697 213 Z " /><path fill="rgb(253,252,252)" stroke="rgb(253,252,252)" stroke-width="1" opacity="0.7607843137254902" d="M 184.5 204 L 193 204 L 193 222.5 L 197 224.5 L 184.5 225 L 184.5 224 L 188 222.5 L 188 206.5 L 186.5 205 Q 183.5 205.5 184.5 204 Z " /><path fill="rgb(253,252,252)" stroke="rgb(253,252,252)" stroke-width="1" opacity="0.7607843137254902" d="M 401.5 204 L 411 204.5 L 408 205 L 412.5 218 L 416 207.5 L 412 204.5 L 422.5 204 L 422.5 205 Q 419.5 204.1 421 208.5 L 424 217 Q 427 218.3 426 214.5 L 429 206.5 L 426 204.5 L 434.5 204 L 432 207.5 L 426 226 Q 422.2 227.5 423 224.5 L 417.5 213 L 413 226 Q 408.9 227.7 410 223.5 L 401.5 204 Z " /><path fill="rgb(253,252,252)" stroke="rgb(253,252,252)" stroke-width="1" opacity="0.7607843137254902" d="M 641.5 204 L 650 204 L 650 222.5 L 654 224.5 L 641.5 225 L 641.5 224 L 645 222.5 L 645 206.5 L 643.5 205 Q 640.5 205.5 641.5 204 Z " /></svg>